<?xml version="1.0" standalone="no"?>
<!DOCTYPE svg PUBLIC "-//W3C//DTD SVG 20010904//EN"
 "http://www.w3.org/TR/2001/REC-SVG-20010904/DTD/svg10.dtd">
<svg version="1.0" xmlns="http://www.w3.org/2000/svg"
 width="168.000000pt" height="168.000000pt" viewBox="0 0 168.000000 168.000000"
 preserveAspectRatio="xMidYMid meet">

<g transform="translate(0.000000,168.000000) scale(0.100000,-0.100000)"
fill="#000000" stroke="none">
<path d="M139 1537 c-44 -54 -47 -67 -59 -256 -14 -199 -7 -984 8 -1079 10
-64 38 -103 83 -119 26 -9 29 -12 12 -12 -14 -1 -23 -7 -23 -16 0 -13 87 -15
720 -15 l720 0 0 765 0 765 -717 -1 -718 0 -26 -32z m1331 -18 c90 -41 92 -54
97 -559 5 -480 -5 -748 -31 -798 -37 -72 -125 -86 -516 -86 -290 1 -710 25
-793 45 -48 13 -73 37 -86 86 -21 76 -43 489 -37 688 17 490 30 576 97 610 48
25 230 33 764 31 409 -1 475 -3 505 -17z"/>
<path d="M1026 1454 c-10 -25 -7 -29 17 -30 17 -1 23 4 25 22 1 18 -3 24 -17
24 -10 0 -22 -7 -25 -16z"/>
<path d="M1086 1454 c-11 -28 -6 -34 14 -22 14 9 16 14 7 20 -8 5 -4 8 11 8
16 0 22 -6 22 -22 1 -22 1 -22 12 -3 6 11 16 23 22 27 6 4 -10 8 -35 8 -34 0
-49 -5 -53 -16z"/>
<path d="M335 1371 c-36 -25 -65 -75 -65 -114 0 -80 59 -137 144 -137 43 0 53
4 87 39 36 36 39 43 39 95 0 50 -4 60 -33 93 -29 31 -41 37 -88 40 -42 3 -60
0 -84 -16z m136 -14 c45 -30 61 -63 56 -116 -16 -152 -240 -140 -240 13 0 100
103 158 184 103z"/>
<path d="M349 1341 l-23 -19 32 -30 c17 -16 32 -34 32 -39 0 -6 -16 -18 -35
-29 -43 -23 -44 -30 -2 -63 21 -17 47 0 47 33 0 11 5 28 10 36 8 13 15 12 50
-7 l41 -22 10 27 c11 27 0 59 -18 55 -4 -1 -25 -4 -45 -8 l-38 -7 0 46 c0 38
-3 46 -19 46 -10 0 -29 -9 -42 -19z"/>
<path d="M1230 1374 c-63 -40 -85 -114 -54 -179 23 -49 67 -75 126 -75 39 0
54 6 83 31 65 58 68 144 5 204 -37 35 -120 45 -160 19z m120 -9 c77 -40 95
-129 38 -190 -64 -69 -162 -53 -201 33 -19 44 -19 46 -1 90 30 71 101 100 164
67z"/>
<path d="M1245 1348 c-22 -13 -44 -38 -45 -51 0 -5 18 -16 40 -25 22 -9 40
-20 40 -23 0 -3 -16 -14 -35 -25 -19 -10 -35 -21 -35 -25 0 -11 34 -37 62 -48
35 -13 49 4 41 52 -6 42 -1 45 45 17 l32 -20 12 25 c12 27 1 86 -18 92 -6 2
-25 -8 -42 -22 -16 -14 -33 -25 -36 -25 -3 0 -6 20 -6 45 0 49 -14 57 -55 33z"/>
<path d="M564 1086 c-9 -24 4 -48 23 -44 12 2 18 12 18 28 0 29 -32 41 -41 16z"/>
<path d="M1092 1087 c-9 -10 -9 -18 1 -31 17 -23 49 -11 45 18 -4 25 -30 32
-46 13z"/>
<path d="M567 564 c-12 -12 -8 -42 6 -47 21 -8 39 8 35 29 -3 19 -29 30 -41
18z"/>
<path d="M1097 564 c-12 -12 -8 -42 6 -47 21 -8 39 8 35 29 -3 19 -29 30 -41
18z"/>
<path d="M341 482 c-66 -35 -90 -125 -51 -189 25 -42 68 -63 126 -63 41 0 51
5 85 39 35 34 39 44 39 87 0 114 -102 178 -199 126z m114 -6 c114 -48 88 -220
-36 -233 -136 -13 -188 170 -66 231 40 19 59 20 102 2z"/>
<path d="M364 456 c-3 -8 2 -28 10 -45 24 -45 20 -59 -19 -78 -37 -18 -44 -45
-12 -51 11 -2 23 8 35 27 23 41 45 47 86 22 35 -22 46 -19 46 10 0 18 -16 25
-70 31 -22 3 -25 8 -28 51 -3 39 -6 47 -23 47 -11 0 -22 -6 -25 -14z"/>
<path d="M1194 468 c4 -18 18 -50 32 -71 25 -39 26 -39 6 -61 -22 -24 -47 -94
-38 -104 4 -3 52 -7 108 -7 l100 -2 -5 39 c-3 21 -17 54 -31 72 -23 30 -24 35
-10 47 22 18 44 64 44 94 l0 25 -106 0 -106 0 6 -32z m196 6 c0 -26 -42 -93
-62 -100 -17 -5 -16 -8 8 -26 24 -20 54 -73 54 -98 0 -6 -35 -10 -90 -10 -75
0 -90 3 -90 16 0 21 18 54 47 86 l25 26 -21 11 c-24 13 -51 61 -51 91 0 19 6
20 90 20 76 0 90 -2 90 -16z"/>
<path d="M1268 391 c29 -25 28 -62 -3 -91 -41 -38 -33 -50 35 -50 69 0 73 8
30 52 -37 37 -38 56 -2 85 l27 22 -55 0 -55 0 23 -18z"/>
<path d="M562 216 c-71 -36 -71 -37 16 -76 l52 -23 53 23 c82 38 84 41 40 63
-92 48 -92 48 -161 13z m48 -26 c0 -11 -4 -20 -10 -20 -5 0 -10 9 -10 20 0 11
5 20 10 20 6 0 10 -9 10 -20z m86 -16 c-5 -13 -10 -14 -18 -6 -6 6 -8 18 -4
28 5 13 10 14 18 6 6 -6 8 -18 4 -28z m-37 2 c0 -12 -3 -15 -6 -8 -2 6 -9 10
-14 6 -5 -3 -9 1 -9 9 0 7 7 14 15 14 9 0 15 -9 14 -21z"/>
</g>
</svg>
